<?xml version="1.0" encoding="utf-8" standalone="no"?>
<!DOCTYPE svg PUBLIC "-//W3C//DTD SVG 1.1//EN"
  "http://www.w3.org/Graphics/SVG/1.1/DTD/svg11.dtd">
<!-- Created with matplotlib (http://matplotlib.org/) -->
<svg height="1440pt" version="1.1" viewBox="0 0 1800 1440" width="1800pt" xmlns="http://www.w3.org/2000/svg" xmlns:xlink="http://www.w3.org/1999/xlink">
 <defs>
  <style type="text/css">
*{stroke-linecap:square;stroke-linejoin:round;}
  </style>
 </defs>
 <g id="figure_1">
  <g id="patch_1">
   <path d="
M0 1440
L1800 1440
L1800 0
L0 0
z
" style="fill:#ffffff;"/>
  </g>
  <g id="axes_1">
   <g id="patch_2">
    <path d="
M225 1152
L1620 1152
L1620 144
L225 144
z
" style="fill:#ffffff;"/>
   </g>
   <g id="line2d_1">
    <path clip-path="url(#p0b2daec241)" d="
M225 1130.56
L326.276 997.49
L378.548 929.005
L381.815 868.951
L427.553 819.915
L519.028 791.829
L620.304 808.804
L718.314 729.94
L819.59 736.011
L871.862 764.957
L875.129 817.418
L917.6 830.699
L927.4 836.926
L930.667 844.297
L1015.61 913.695
L1018.88 917.597
L1120.15 1026.42
L1218.16 1129.71
L1319.44 1142.72
L1417.45 1152
L1518.72 1152
L1620 1145.55" style="fill:none;stroke:#fbd18b;stroke-width:2.0;"/>
   </g>
   <g id="line2d_2">
    <path clip-path="url(#p0b2daec241)" d="
M225 1132.94
L326.276 1037.32
L378.548 980.414
L381.815 929.192
L427.553 885.991
L519.028 847.917
L620.304 852.75
L718.314 784.591
L819.59 790.784
L871.862 811.213
L875.129 859.165
L917.6 865.401
L927.4 871.397
L930.667 880.909
L1015.61 944.497
L1018.88 948.155
L1120.15 1046.59
L1218.16 1135.95
L1319.44 1145.44
L1417.45 1152
L1518.72 1152
L1620 1147.44" style="fill:none;stroke:#ffba2d;stroke-width:2.0;"/>
   </g>
   <g id="line2d_3">
    <path clip-path="url(#p0b2daec241)" d="
M225 1135.33
L326.276 1077.16
L378.548 1031.82
L381.815 989.433
L427.553 952.066
L519.028 904.005
L620.304 896.696
L718.314 839.242
L819.59 845.558
L871.862 857.468
L875.129 900.911
L917.6 900.103
L927.4 905.869
L930.667 917.521
L1015.61 975.299
L1018.88 978.714
L1120.15 1066.76
L1218.16 1142.19
L1319.44 1148.16
L1417.45 1152
L1518.72 1152
L1620 1149.33" style="fill:none;stroke:#ffbc80;stroke-width:2.0;"/>
   </g>
   <g id="line2d_4">
    <path clip-path="url(#p0b2daec241)" d="
M225 1136.72
L326.276 1100.46
L378.548 1061.9
L381.815 1024.67
L427.553 990.718
L519.028 936.815
L620.304 922.403
L718.314 871.211
L819.59 877.598
L871.862 884.526
L875.129 925.331
L917.6 920.403
L927.4 926.033
L930.667 938.938
L1015.61 993.317
L1018.88 996.589
L1120.15 1078.56
L1218.16 1145.84
L1319.44 1149.75
L1417.45 1152
L1518.72 1152
L1620 1150.43" style="fill:none;stroke:#ff7b00;stroke-width:2.0;"/>
   </g>
   <g id="line2d_5">
    <path clip-path="url(#p0b2daec241)" d="
M225 1137.71
L326.276 1116.99
L378.548 1083.23
L381.815 1049.67
L427.553 1018.14
L519.028 960.094
L620.304 940.642
L718.314 893.894
L819.59 900.331
L871.862 903.724
L875.129 942.657
L917.6 934.805
L927.4 940.34
L930.667 954.133
L1015.61 1006.1
L1018.88 1009.27
L1120.15 1086.93
L1218.16 1148.43
L1319.44 1150.88
L1417.45 1152
L1518.72 1152
L1620 1151.22" style="fill:none;stroke:#f68ba2;stroke-width:2.0;"/>
   </g>
   <g id="line2d_6">
    <path clip-path="url(#p0b2daec241)" d="
M225 1138.48
L326.276 1129.81
L378.548 1099.78
L381.815 1069.07
L427.553 1039.41
L519.028 978.15
L620.304 954.789
L718.314 911.487
L819.59 917.964
L871.862 918.615
L875.129 956.096
L917.6 945.977
L927.4 951.437
L930.667 965.92
L1015.61 1016.02
L1018.88 1019.11
L1120.15 1093.42
L1218.16 1150.44
L1319.44 1151.75
L1417.45 1152
L1518.72 1152
L1620 1151.83" style="fill:none;stroke:#ed1745;stroke-width:2.0;"/>
   </g>
   <g id="line2d_7">
    <path clip-path="url(#p0b2daec241)" d="
M225 1138.48
L326.276 1129.81
L378.548 1099.78
L381.815 1069.07
L427.553 1039.41
L519.028 978.15
L620.304 954.789
L718.314 911.487
L819.59 917.964
L871.862 918.615
L875.129 956.096
L917.6 945.977
L927.4 951.437
L930.667 965.92
L1015.61 1016.02
L1018.88 1019.11
L1120.15 1093.42
L1218.16 1150.44
L1319.44 1151.75
L1417.45 1152
L1518.72 1152
L1620 1151.83" style="fill:none;stroke:#ed1745;stroke-width:4;"/>
   </g>
   <g id="line2d_8">
    <path clip-path="url(#p0b2daec241)" d="
M225 559.592
L231.534 553.898
L244.602 544.847
L247.869 542.914
L257.67 537.8
L264.204 530.133
L267.471 526.857
L270.738 523.762
L274.005 521.088
L290.34 505.947
L293.607 502.616
L296.874 498.732
L300.141 495.234
L303.407 491.079
L306.674 487.897
L309.941 484.531
L313.208 479.901
L316.475 476.349
L319.742 473.276
L323.009 470.895
L326.276 469.052
L329.543 465.037
L332.81 461.603
L336.077 458.474
L342.611 454.017
L349.145 448.684
L352.412 444.607
L355.679 440.996
L358.946 438.437
L365.48 435.35
L368.747 434.013
L372.014 432.874
L375.281 432.306
L381.815 430.913
L385.082 429.704
L388.349 428.889
L391.616 427.753
L398.15 423.06
L401.417 421.321
L404.684 420.262
L407.951 418.837
L411.218 416.282
L414.485 415.121
L417.752 414.238
L421.019 413.6
L424.286 412.457
L427.553 410.497
L437.354 405.647
L440.621 405.131
L443.888 404.272
L447.155 403.831
L450.422 404.231
L453.689 405.054
L456.956 405.737
L460.222 405.596
L463.489 405.15
L466.756 405.306
L470.023 405.048
L473.29 404.953
L476.557 405.314
L479.824 405.272
L492.892 405.894
L496.159 405.728
L499.426 404.557
L502.693 403.807
L505.96 404.168
L509.227 404.668
L515.761 404.724
L519.028 404.155
L522.295 404.637
L525.562 405.355
L532.096 407.007
L541.897 405.869
L545.164 406.141
L548.431 404.692
L551.698 403.897
L554.965 402.975
L558.232 402.997
L564.766 405.017
L568.033 406.29
L571.3 407.807
L574.567 409.498
L584.368 413.745
L590.902 416.607
L594.169 417.347
L600.703 417.867
L603.97 418.607
L607.237 419.776
L613.77 420.662
L617.037 420.894
L620.304 420.689
L623.571 421.053
L626.838 421.148
L630.105 421.54
L633.372 422.449
L636.639 423.054
L639.906 423.362
L646.44 423.346
L649.707 423.767
L652.974 425.098
L659.508 428.959
L662.775 430.705
L666.042 431.828
L669.309 433.292
L672.576 435.01
L679.11 437.945
L682.377 438.551
L685.644 439.396
L688.911 440.651
L692.178 441.567
L695.445 442.71
L705.246 442.466
L708.513 442.719
L711.78 443.574
L715.047 444.655
L718.314 446.679
L724.848 451.569
L728.115 453.58
L731.382 455.062
L737.916 457.465
L741.183 458.903
L744.45 460.076
L747.717 461.791
L750.984 463.782
L757.518 466.846
L760.785 467.581
L764.052 467.896
L767.319 467.747
L770.585 467.759
L773.852 468.471
L777.119 469.422
L780.386 469.735
L783.653 470.634
L786.92 471.987
L790.187 473.171
L793.454 474.524
L796.721 476.164
L806.522 479.559
L813.056 481.033
L816.323 482.095
L819.59 482.816
L822.857 483.296
L826.124 484.367
L829.391 485.224
L832.658 486.607
L835.925 488.785
L839.192 490.733
L842.459 492.369
L845.726 493.805
L848.993 495.482
L852.26 497.001
L862.061 501.046
L865.328 502.056
L868.595 503.39
L875.129 506.301
L878.396 508.141
L884.93 512.376
L888.197 514.097
L897.998 518.452
L901.265 519.639
L904.532 521.082
L907.799 523.092
L914.333 526.1
L917.6 527.978
L924.133 531.389
L927.4 533.38
L930.667 534.886
L933.934 536.608
L937.201 538.782
L943.735 543.391
L947.002 545.411
L950.269 547.679
L953.536 550.183
L963.337 558.503
L973.138 565.751
L979.672 570.544
L982.939 572.666
L989.473 576.234
L996.007 580.497
L1002.54 583.965
L1009.07 588.683
L1012.34 590.843
L1015.61 592.369
L1022.14 594.5
L1025.41 596.378
L1031.94 599.741
L1035.21 601.377
L1038.48 603.154
L1041.74 605.429
L1045.01 606.631
L1051.55 608.324
L1054.81 608.799
L1061.35 609.376
L1067.88 611.838
L1077.68 616.864
L1087.48 622.896
L1090.75 625.06
L1094.02 626.93
L1097.28 628.513
L1100.55 629.766
L1103.82 631.607
L1107.08 633.311
L1113.62 637.13
L1116.89 639.124
L1120.15 640.98
L1123.42 642.456
L1133.22 646.153
L1136.49 646.501
L1139.75 646.671
L1143.02 647.018
L1146.29 647.2
L1149.56 647.04
L1152.82 646.655
L1156.09 645.863
L1159.36 645.55
L1162.62 645.47
L1165.89 644.887
L1169.16 643.995
L1175.69 643.496
L1178.96 643.577
L1182.22 643.854
L1185.49 643.947
L1188.76 644.241
L1192.03 644.366
L1198.56 644.081
L1201.83 643.631
L1205.09 643.669
L1211.63 644.804
L1214.89 644.745
L1218.16 644.243
L1221.43 643.479
L1224.7 642.059
L1227.96 640.456
L1231.23 638.725
L1241.03 634.113
L1244.3 633.191
L1247.56 632.762
L1250.83 632.653
L1254.1 632.211
L1257.37 630.815
L1260.63 629.641
L1263.9 628.276
L1270.43 625.099
L1273.7 624.031
L1276.97 623.502
L1280.23 622.395
L1290.04 617.851
L1293.3 616.617
L1296.57 615.168
L1303.1 613.399
L1306.37 611.967
L1312.9 608.736
L1316.17 606.741
L1319.44 605.349
L1322.7 604.216
L1329.24 602.765
L1332.51 602.754
L1335.77 601.871
L1339.04 599.951
L1342.31 598.276
L1345.57 596.812
L1348.84 595.204
L1352.11 593.467
L1355.37 591.923
L1358.64 590.968
L1361.91 589.426
L1365.18 587.192
L1368.44 584.547
L1371.71 582.167
L1374.98 580.253
L1378.24 577.771
L1381.51 575.489
L1384.78 573.365
L1388.04 572.042
L1394.58 569.175
L1397.85 567.37
L1401.11 566.12
L1404.38 565.014
L1407.65 563.482
L1414.18 561.032
L1417.45 559.592
L1423.98 553.898
L1437.05 544.847
L1440.32 542.914
L1450.12 537.8
L1456.65 530.133
L1459.92 526.857
L1463.19 523.762
L1466.45 521.088
L1482.79 505.947
L1486.05 502.616
L1489.32 498.732
L1492.59 495.234
L1495.85 491.079
L1499.12 487.897
L1502.39 484.531
L1505.66 479.901
L1508.92 476.349
L1512.19 473.276
L1515.46 470.895
L1518.72 469.052
L1521.99 465.037
L1525.26 461.603
L1528.52 458.474
L1535.06 454.017
L1541.59 448.684
L1544.86 444.607
L1548.13 440.996
L1551.39 438.437
L1557.93 435.35
L1561.19 434.013
L1564.46 432.874
L1567.73 432.306
L1574.26 430.913
L1577.53 429.704
L1580.8 428.889
L1584.06 427.753
L1590.6 423.06
L1593.86 421.321
L1597.13 420.262
L1600.4 418.837
L1603.67 416.282
L1606.93 415.121
L1610.2 414.238
L1613.47 413.6
L1616.73 412.457
L1620 410.497
L1620 410.497" style="fill:none;stroke:#c9c9c9;stroke-width:6;"/>
   </g>
   <g id="line2d_9">
    <path clip-path="url(#p0b2daec241)" d="
M225 510.934
L228.267 507.597
L231.534 508.541
L234.801 510.616
L238.068 503.933
L241.335 495.305
L244.602 485.806
L247.869 481.811
L251.136 479.95
L254.403 481.417
L257.67 484.35
L260.937 485.677
L264.204 488.204
L267.471 488.142
L270.738 488.891
L274.005 488.708
L277.272 474.498
L280.539 470.628
L283.806 470.227
L287.073 471.559
L290.34 471.424
L293.607 470.71
L296.874 472.192
L303.407 475.337
L306.674 472.716
L309.941 473.43
L313.208 472.544
L316.475 469.15
L319.742 462.483
L323.009 450.185
L326.276 402.688
L329.543 332.951
L332.81 296.94
L336.077 287.147
L339.344 283.228
L342.611 285.803
L345.878 287.606
L349.145 289.102
L352.412 245.878
L355.679 183.236
L358.946 167.425
L362.213 169.632
L365.48 168.109
L368.747 170.69
L372.014 176.231
L375.281 186.285
L378.548 195.724
L381.815 207.677
L385.082 212.917
L388.349 222.791
L394.883 243.876
L398.15 253.402
L401.417 259.662
L404.684 267.582
L407.951 273.785
L411.218 279.311
L414.485 286.83
L417.752 292.992
L424.286 306.208
L430.82 317.381
L434.087 319.894
L437.354 316.307
L440.621 314.333
L443.888 314.062
L447.155 318.623
L453.689 326.683
L456.956 332.326
L460.222 334.89
L466.756 344.011
L470.023 348.06
L473.29 353.037
L476.557 357.738
L479.824 364.344
L483.091 372.582
L486.358 379.105
L489.625 386.35
L492.892 394.502
L496.159 403.354
L502.693 418.264
L509.227 435.77
L512.494 445.085
L515.761 451.888
L519.028 459.963
L522.295 465.808
L525.562 472.587
L528.829 479.884
L532.096 488.181
L538.63 503.809
L545.164 517.253
L548.431 521.775
L551.698 529.783
L554.965 536.316
L558.232 543.134
L561.499 549.032
L564.766 555.424
L568.033 560.105
L571.3 561.161
L574.567 562.76
L577.834 565.147
L581.101 568.934
L584.368 574.881
L587.635 579.346
L590.902 583.342
L594.169 577.656
L597.436 576.071
L603.97 582.853
L607.237 587.233
L610.504 589.468
L613.77 593.912
L617.037 595.55
L620.304 596.682
L623.571 599.003
L626.838 597.295
L630.105 596.595
L633.372 599.267
L636.639 603.402
L639.906 608.736
L643.173 613.512
L646.44 620.043
L649.707 624.21
L652.974 625.567
L656.241 627.877
L659.508 631.203
L662.775 633.01
L666.042 634.122
L669.309 636.593
L672.576 635.961
L675.843 640.037
L679.11 644.742
L682.377 645.466
L685.644 643.648
L688.911 645.467
L692.178 647.116
L695.445 649.951
L698.712 649.989
L701.979 647.325
L705.246 640.48
L708.513 631.051
L711.78 619.886
L715.047 614.386
L718.314 615.966
L721.581 614.74
L724.848 614.294
L728.115 612.421
L731.382 605.63
L734.649 601.076
L737.916 601.954
L741.183 604.399
L744.45 604.82
L747.717 603.627
L750.984 605.209
L754.251 606.366
L757.518 608.76
L760.785 611.843
L764.052 616.049
L767.319 620.804
L770.585 621.042
L773.852 621.096
L777.119 621.813
L780.386 625.406
L783.653 629.822
L786.92 632.237
L790.187 634.074
L793.454 637.22
L796.721 634.185
L799.988 620.577
L803.255 619.033
L806.522 623.848
L809.789 630.769
L813.056 634.434
L816.323 627.978
L819.59 617.428
L822.857 573.669
L826.124 553.036
L829.391 542.075
L832.658 538.112
L835.925 534.424
L839.192 533.816
L842.459 534.015
L845.726 531.831
L848.993 533.39
L852.26 536.317
L855.527 540.519
L858.794 545.427
L862.061 552.09
L865.328 555.901
L868.595 553.084
L871.862 552.483
L875.129 549.452
L878.396 545.097
L881.663 542.45
L884.93 544.414
L888.197 546.875
L891.464 550.154
L894.731 555.259
L901.265 567.648
L904.532 573.08
L907.799 577.941
L914.333 586.127
L917.6 583.284
L920.867 563.698
L924.133 535.57
L927.4 528.139
L930.667 504.825
L933.934 475.166
L937.201 461.346
L940.468 458.651
L943.735 461.209
L947.002 464.672
L950.269 466.772
L953.536 472.214
L956.803 476.736
L960.07 479.427
L963.337 484.883
L966.604 490.645
L969.871 494.006
L973.138 491.979
L976.405 495.111
L979.672 496.086
L982.939 496.694
L986.206 493.454
L989.473 495.094
L992.74 499.573
L996.007 502.882
L999.274 507.003
L1002.54 508.74
L1005.81 512.185
L1009.07 516.882
L1015.61 529.415
L1018.88 534.323
L1022.14 537.536
L1025.41 540.237
L1031.94 549.736
L1035.21 553.356
L1038.48 554.488
L1038.48 554.488" style="fill:none;stroke:#0f7baf;stroke-width:4;"/>
   </g>
   <g id="matplotlib.axis_1">
    <g id="xtick_1">
     <g id="line2d_10">
      <path clip-path="url(#p0b2daec241)" d="
M225 1152
L225 144" style="fill:none;opacity:0.6;stroke:#000000;stroke-dasharray:6.000000,6.000000;stroke-dashoffset:0.0;stroke-linecap:butt;stroke-width:0.5;"/>
     </g>
     <g id="line2d_11">
      <defs>
       <path d="
M0 0
L0 4" id="mdad270ee8e" style="stroke:#000000;stroke-linecap:butt;stroke-width:0.5;"/>
      </defs>
      <g>
       <use style="stroke:#000000;stroke-linecap:butt;stroke-width:0.5;" x="225.0" xlink:href="#mdad270ee8e" y="1152.0"/>
      </g>
     </g>
     <g id="line2d_12">
      <defs>
       <path d="
M0 0
L0 -4" id="mcb557df647" style="stroke:#000000;stroke-linecap:butt;stroke-width:0.5;"/>
      </defs>
      <g>
       <use style="stroke:#000000;stroke-linecap:butt;stroke-width:0.5;" x="225.0" xlink:href="#mcb557df647" y="144.0"/>
      </g>
     </g>
     <g id="text_1">
      <!-- Dec 2012 -->
      <defs>
       <path d="
M19.1875 8.29688
L53.6094 8.29688
L53.6094 0
L7.32812 0
L7.32812 8.29688
Q12.9375 14.1094 22.625 23.8906
Q32.3281 33.6875 34.8125 36.5312
Q39.5469 41.8438 41.4219 45.5312
Q43.3125 49.2188 43.3125 52.7812
Q43.3125 58.5938 39.2344 62.25
Q35.1562 65.9219 28.6094 65.9219
Q23.9688 65.9219 18.8125 64.3125
Q13.6719 62.7031 7.8125 59.4219
L7.8125 69.3906
Q13.7656 71.7812 18.9375 73
Q24.125 74.2188 28.4219 74.2188
Q39.75 74.2188 46.4844 68.5469
Q53.2188 62.8906 53.2188 53.4219
Q53.2188 48.9219 51.5312 44.8906
Q49.8594 40.875 45.4062 35.4062
Q44.1875 33.9844 37.6406 27.2188
Q31.1094 20.4531 19.1875 8.29688" id="BitstreamVeraSans-Roman-32"/>
       <path id="BitstreamVeraSans-Roman-20"/>
       <path d="
M31.7812 66.4062
Q24.1719 66.4062 20.3281 58.9062
Q16.5 51.4219 16.5 36.375
Q16.5 21.3906 20.3281 13.8906
Q24.1719 6.39062 31.7812 6.39062
Q39.4531 6.39062 43.2812 13.8906
Q47.125 21.3906 47.125 36.375
Q47.125 51.4219 43.2812 58.9062
Q39.4531 66.4062 31.7812 66.4062
M31.7812 74.2188
Q44.0469 74.2188 50.5156 64.5156
Q56.9844 54.8281 56.9844 36.375
Q56.9844 17.9688 50.5156 8.26562
Q44.0469 -1.42188 31.7812 -1.42188
Q19.5312 -1.42188 13.0625 8.26562
Q6.59375 17.9688 6.59375 36.375
Q6.59375 54.8281 13.0625 64.5156
Q19.5312 74.2188 31.7812 74.2188" id="BitstreamVeraSans-Roman-30"/>
       <path d="
M12.4062 8.29688
L28.5156 8.29688
L28.5156 63.9219
L10.9844 60.4062
L10.9844 69.3906
L28.4219 72.9062
L38.2812 72.9062
L38.2812 8.29688
L54.3906 8.29688
L54.3906 0
L12.4062 0
z
" id="BitstreamVeraSans-Roman-31"/>
       <path d="
M19.6719 64.7969
L19.6719 8.10938
L31.5938 8.10938
Q46.6875 8.10938 53.6875 14.9375
Q60.6875 21.7812 60.6875 36.5312
Q60.6875 51.1719 53.6875 57.9844
Q46.6875 64.7969 31.5938 64.7969
z

M9.8125 72.9062
L30.0781 72.9062
Q51.2656 72.9062 61.1719 64.0938
Q71.0938 55.2812 71.0938 36.5312
Q71.0938 17.6719 61.125 8.82812
Q51.1719 0 30.0781 0
L9.8125 0
z
" id="BitstreamVeraSans-Roman-44"/>
       <path d="
M56.2031 29.5938
L56.2031 25.2031
L14.8906 25.2031
Q15.4844 15.9219 20.4844 11.0625
Q25.4844 6.20312 34.4219 6.20312
Q39.5938 6.20312 44.4531 7.46875
Q49.3125 8.73438 54.1094 11.2812
L54.1094 2.78125
Q49.2656 0.734375 44.1875 -0.34375
Q39.1094 -1.42188 33.8906 -1.42188
Q20.7969 -1.42188 13.1562 6.1875
Q5.51562 13.8125 5.51562 26.8125
Q5.51562 40.2344 12.7656 48.1094
Q20.0156 56 32.3281 56
Q43.3594 56 49.7812 48.8906
Q56.2031 41.7969 56.2031 29.5938
M47.2188 32.2344
Q47.125 39.5938 43.0938 43.9844
Q39.0625 48.3906 32.4219 48.3906
Q24.9062 48.3906 20.3906 44.1406
Q15.875 39.8906 15.1875 32.1719
z
" id="BitstreamVeraSans-Roman-65"/>
       <path d="
M48.7812 52.5938
L48.7812 44.1875
Q44.9688 46.2969 41.1406 47.3438
Q37.3125 48.3906 33.4062 48.3906
Q24.6562 48.3906 19.8125 42.8438
Q14.9844 37.3125 14.9844 27.2969
Q14.9844 17.2812 19.8125 11.7344
Q24.6562 6.20312 33.4062 6.20312
Q37.3125 6.20312 41.1406 7.25
Q44.9688 8.29688 48.7812 10.4062
L48.7812 2.09375
Q45.0156 0.34375 40.9844 -0.53125
Q36.9688 -1.42188 32.4219 -1.42188
Q20.0625 -1.42188 12.7812 6.34375
Q5.51562 14.1094 5.51562 27.2969
Q5.51562 40.6719 12.8594 48.3281
Q20.2188 56 33.0156 56
Q37.1562 56 41.1094 55.1406
Q45.0625 54.2969 48.7812 52.5938" id="BitstreamVeraSans-Roman-63"/>
      </defs>
      <g transform="translate(131.04375 1174.84375)scale(0.2 -0.2)">
       <use xlink:href="#BitstreamVeraSans-Roman-44"/>
       <use x="77.001953125" xlink:href="#BitstreamVeraSans-Roman-65"/>
       <use x="138.525390625" xlink:href="#BitstreamVeraSans-Roman-63"/>
       <use x="193.505859375" xlink:href="#BitstreamVeraSans-Roman-20"/>
       <use x="225.29296875" xlink:href="#BitstreamVeraSans-Roman-32"/>
       <use x="288.916015625" xlink:href="#BitstreamVeraSans-Roman-30"/>
       <use x="352.5390625" xlink:href="#BitstreamVeraSans-Roman-31"/>
       <use x="416.162109375" xlink:href="#BitstreamVeraSans-Roman-32"/>
      </g>
     </g>
    </g>
    <g id="xtick_2">
     <g id="line2d_13">
      <path clip-path="url(#p0b2daec241)" d="
M427.553 1152
L427.553 144" style="fill:none;opacity:0.6;stroke:#000000;stroke-dasharray:6.000000,6.000000;stroke-dashoffset:0.0;stroke-linecap:butt;stroke-width:0.5;"/>
     </g>
     <g id="line2d_14">
      <g>
       <use style="stroke:#000000;stroke-linecap:butt;stroke-width:0.5;" x="427.552693208" xlink:href="#mdad270ee8e" y="1152.0"/>
      </g>
     </g>
     <g id="line2d_15">
      <g>
       <use style="stroke:#000000;stroke-linecap:butt;stroke-width:0.5;" x="427.552693208" xlink:href="#mcb557df647" y="144.0"/>
      </g>
     </g>
     <g id="text_2">
      <!-- Feb 2013 -->
      <defs>
       <path d="
M9.8125 72.9062
L51.7031 72.9062
L51.7031 64.5938
L19.6719 64.5938
L19.6719 43.1094
L48.5781 43.1094
L48.5781 34.8125
L19.6719 34.8125
L19.6719 0
L9.8125 0
z
" id="BitstreamVeraSans-Roman-46"/>
       <path d="
M40.5781 39.3125
Q47.6562 37.7969 51.625 33
Q55.6094 28.2188 55.6094 21.1875
Q55.6094 10.4062 48.1875 4.48438
Q40.7656 -1.42188 27.0938 -1.42188
Q22.5156 -1.42188 17.6562 -0.515625
Q12.7969 0.390625 7.625 2.20312
L7.625 11.7188
Q11.7188 9.32812 16.5938 8.10938
Q21.4844 6.89062 26.8125 6.89062
Q36.0781 6.89062 40.9375 10.5469
Q45.7969 14.2031 45.7969 21.1875
Q45.7969 27.6406 41.2812 31.2656
Q36.7656 34.9062 28.7188 34.9062
L20.2188 34.9062
L20.2188 43.0156
L29.1094 43.0156
Q36.375 43.0156 40.2344 45.9219
Q44.0938 48.8281 44.0938 54.2969
Q44.0938 59.9062 40.1094 62.9062
Q36.1406 65.9219 28.7188 65.9219
Q24.6562 65.9219 20.0156 65.0312
Q15.375 64.1562 9.8125 62.3125
L9.8125 71.0938
Q15.4375 72.6562 20.3438 73.4375
Q25.25 74.2188 29.5938 74.2188
Q40.8281 74.2188 47.3594 69.1094
Q53.9062 64.0156 53.9062 55.3281
Q53.9062 49.2656 50.4375 45.0938
Q46.9688 40.9219 40.5781 39.3125" id="BitstreamVeraSans-Roman-33"/>
       <path d="
M48.6875 27.2969
Q48.6875 37.2031 44.6094 42.8438
Q40.5312 48.4844 33.4062 48.4844
Q26.2656 48.4844 22.1875 42.8438
Q18.1094 37.2031 18.1094 27.2969
Q18.1094 17.3906 22.1875 11.75
Q26.2656 6.10938 33.4062 6.10938
Q40.5312 6.10938 44.6094 11.75
Q48.6875 17.3906 48.6875 27.2969
M18.1094 46.3906
Q20.9531 51.2656 25.2656 53.625
Q29.5938 56 35.5938 56
Q45.5625 56 51.7812 48.0938
Q58.0156 40.1875 58.0156 27.2969
Q58.0156 14.4062 51.7812 6.48438
Q45.5625 -1.42188 35.5938 -1.42188
Q29.5938 -1.42188 25.2656 0.953125
Q20.9531 3.32812 18.1094 8.20312
L18.1094 0
L9.07812 0
L9.07812 75.9844
L18.1094 75.9844
z
" id="BitstreamVeraSans-Roman-62"/>
      </defs>
      <g transform="translate(336.493318208 1175.196875)scale(0.2 -0.2)">
       <use xlink:href="#BitstreamVeraSans-Roman-46"/>
       <use x="52.01953125" xlink:href="#BitstreamVeraSans-Roman-65"/>
       <use x="113.54296875" xlink:href="#BitstreamVeraSans-Roman-62"/>
       <use x="177.01953125" xlink:href="#BitstreamVeraSans-Roman-20"/>
       <use x="208.806640625" xlink:href="#BitstreamVeraSans-Roman-32"/>
       <use x="272.4296875" xlink:href="#BitstreamVeraSans-Roman-30"/>
       <use x="336.052734375" xlink:href="#BitstreamVeraSans-Roman-31"/>
       <use x="399.67578125" xlink:href="#BitstreamVeraSans-Roman-33"/>
      </g>
     </g>
    </g>
    <g id="xtick_3">
     <g id="line2d_16">
      <path clip-path="url(#p0b2daec241)" d="
M620.304 1152
L620.304 144" style="fill:none;opacity:0.6;stroke:#000000;stroke-dasharray:6.000000,6.000000;stroke-dashoffset:0.0;stroke-linecap:butt;stroke-width:0.5;"/>
     </g>
     <g id="line2d_17">
      <g>
       <use style="stroke:#000000;stroke-linecap:butt;stroke-width:0.5;" x="620.304449649" xlink:href="#mdad270ee8e" y="1152.0"/>
      </g>
     </g>
     <g id="line2d_18">
      <g>
       <use style="stroke:#000000;stroke-linecap:butt;stroke-width:0.5;" x="620.304449649" xlink:href="#mcb557df647" y="144.0"/>
      </g>
     </g>
     <g id="text_3">
      <!-- Apr 2013 -->
      <defs>
       <path d="
M41.1094 46.2969
Q39.5938 47.1719 37.8125 47.5781
Q36.0312 48 33.8906 48
Q26.2656 48 22.1875 43.0469
Q18.1094 38.0938 18.1094 28.8125
L18.1094 0
L9.07812 0
L9.07812 54.6875
L18.1094 54.6875
L18.1094 46.1875
Q20.9531 51.1719 25.4844 53.5781
Q30.0312 56 36.5312 56
Q37.4531 56 38.5781 55.875
Q39.7031 55.7656 41.0625 55.5156
z
" id="BitstreamVeraSans-Roman-72"/>
       <path d="
M18.1094 8.20312
L18.1094 -20.7969
L9.07812 -20.7969
L9.07812 54.6875
L18.1094 54.6875
L18.1094 46.3906
Q20.9531 51.2656 25.2656 53.625
Q29.5938 56 35.5938 56
Q45.5625 56 51.7812 48.0938
Q58.0156 40.1875 58.0156 27.2969
Q58.0156 14.4062 51.7812 6.48438
Q45.5625 -1.42188 35.5938 -1.42188
Q29.5938 -1.42188 25.2656 0.953125
Q20.9531 3.32812 18.1094 8.20312
M48.6875 27.2969
Q48.6875 37.2031 44.6094 42.8438
Q40.5312 48.4844 33.4062 48.4844
Q26.2656 48.4844 22.1875 42.8438
Q18.1094 37.2031 18.1094 27.2969
Q18.1094 17.3906 22.1875 11.75
Q26.2656 6.10938 33.4062 6.10938
Q40.5312 6.10938 44.6094 11.75
Q48.6875 17.3906 48.6875 27.2969" id="BitstreamVeraSans-Roman-70"/>
       <path d="
M34.1875 63.1875
L20.7969 26.9062
L47.6094 26.9062
z

M28.6094 72.9062
L39.7969 72.9062
L67.5781 0
L57.3281 0
L50.6875 18.7031
L17.8281 18.7031
L11.1875 0
L0.78125 0
z
" id="BitstreamVeraSans-Roman-41"/>
      </defs>
      <g transform="translate(530.051324649 1174.84375)scale(0.2 -0.2)">
       <use xlink:href="#BitstreamVeraSans-Roman-41"/>
       <use x="68.408203125" xlink:href="#BitstreamVeraSans-Roman-70"/>
       <use x="131.884765625" xlink:href="#BitstreamVeraSans-Roman-72"/>
       <use x="172.998046875" xlink:href="#BitstreamVeraSans-Roman-20"/>
       <use x="204.78515625" xlink:href="#BitstreamVeraSans-Roman-32"/>
       <use x="268.408203125" xlink:href="#BitstreamVeraSans-Roman-30"/>
       <use x="332.03125" xlink:href="#BitstreamVeraSans-Roman-31"/>
       <use x="395.654296875" xlink:href="#BitstreamVeraSans-Roman-33"/>
      </g>
     </g>
    </g>
    <g id="xtick_4">
     <g id="line2d_19">
      <path clip-path="url(#p0b2daec241)" d="
M819.59 1152
L819.59 144" style="fill:none;opacity:0.6;stroke:#000000;stroke-dasharray:6.000000,6.000000;stroke-dashoffset:0.0;stroke-linecap:butt;stroke-width:0.5;"/>
     </g>
     <g id="line2d_20">
      <g>
       <use style="stroke:#000000;stroke-linecap:butt;stroke-width:0.5;" x="819.590163935" xlink:href="#mdad270ee8e" y="1152.0"/>
      </g>
     </g>
     <g id="line2d_21">
      <g>
       <use style="stroke:#000000;stroke-linecap:butt;stroke-width:0.5;" x="819.590163935" xlink:href="#mcb557df647" y="144.0"/>
      </g>
     </g>
     <g id="text_4">
      <!-- Jun 2013 -->
      <defs>
       <path d="
M54.8906 33.0156
L54.8906 0
L45.9062 0
L45.9062 32.7188
Q45.9062 40.4844 42.875 44.3281
Q39.8438 48.1875 33.7969 48.1875
Q26.5156 48.1875 22.3125 43.5469
Q18.1094 38.9219 18.1094 30.9062
L18.1094 0
L9.07812 0
L9.07812 54.6875
L18.1094 54.6875
L18.1094 46.1875
Q21.3438 51.125 25.7031 53.5625
Q30.0781 56 35.7969 56
Q45.2188 56 50.0469 50.1719
Q54.8906 44.3438 54.8906 33.0156" id="BitstreamVeraSans-Roman-6e"/>
       <path d="
M8.5 21.5781
L8.5 54.6875
L17.4844 54.6875
L17.4844 21.9219
Q17.4844 14.1562 20.5 10.2656
Q23.5312 6.39062 29.5938 6.39062
Q36.8594 6.39062 41.0781 11.0312
Q45.3125 15.6719 45.3125 23.6875
L45.3125 54.6875
L54.2969 54.6875
L54.2969 0
L45.3125 0
L45.3125 8.40625
Q42.0469 3.42188 37.7188 1
Q33.4062 -1.42188 27.6875 -1.42188
Q18.2656 -1.42188 13.375 4.4375
Q8.5 10.2969 8.5 21.5781" id="BitstreamVeraSans-Roman-75"/>
       <path d="
M9.8125 72.9062
L19.6719 72.9062
L19.6719 5.07812
Q19.6719 -8.10938 14.6719 -14.0625
Q9.67188 -20.0156 -1.42188 -20.0156
L-5.17188 -20.0156
L-5.17188 -11.7188
L-2.09375 -11.7188
Q4.4375 -11.7188 7.125 -8.04688
Q9.8125 -4.39062 9.8125 5.07812
z
" id="BitstreamVeraSans-Roman-4a"/>
      </defs>
      <g transform="translate(731.652663935 1174.84375)scale(0.2 -0.2)">
       <use xlink:href="#BitstreamVeraSans-Roman-4a"/>
       <use x="29.4921875" xlink:href="#BitstreamVeraSans-Roman-75"/>
       <use x="92.87109375" xlink:href="#BitstreamVeraSans-Roman-6e"/>
       <use x="156.25" xlink:href="#BitstreamVeraSans-Roman-20"/>
       <use x="188.037109375" xlink:href="#BitstreamVeraSans-Roman-32"/>
       <use x="251.66015625" xlink:href="#BitstreamVeraSans-Roman-30"/>
       <use x="315.283203125" xlink:href="#BitstreamVeraSans-Roman-31"/>
       <use x="378.90625" xlink:href="#BitstreamVeraSans-Roman-33"/>
      </g>
     </g>
    </g>
    <g id="xtick_5">
     <g id="line2d_22">
      <path clip-path="url(#p0b2daec241)" d="
M1018.88 1152
L1018.88 144" style="fill:none;opacity:0.6;stroke:#000000;stroke-dasharray:6.000000,6.000000;stroke-dashoffset:0.0;stroke-linecap:butt;stroke-width:0.5;"/>
     </g>
     <g id="line2d_23">
      <g>
       <use style="stroke:#000000;stroke-linecap:butt;stroke-width:0.5;" x="1018.87587822" xlink:href="#mdad270ee8e" y="1152.0"/>
      </g>
     </g>
     <g id="line2d_24">
      <g>
       <use style="stroke:#000000;stroke-linecap:butt;stroke-width:0.5;" x="1018.87587822" xlink:href="#mcb557df647" y="144.0"/>
      </g>
     </g>
     <g id="text_5">
      <!-- Aug 2013 -->
      <defs>
       <path d="
M45.4062 27.9844
Q45.4062 37.75 41.375 43.1094
Q37.3594 48.4844 30.0781 48.4844
Q22.8594 48.4844 18.8281 43.1094
Q14.7969 37.75 14.7969 27.9844
Q14.7969 18.2656 18.8281 12.8906
Q22.8594 7.51562 30.0781 7.51562
Q37.3594 7.51562 41.375 12.8906
Q45.4062 18.2656 45.4062 27.9844
M54.3906 6.78125
Q54.3906 -7.17188 48.1875 -13.9844
Q42 -20.7969 29.2031 -20.7969
Q24.4688 -20.7969 20.2656 -20.0938
Q16.0625 -19.3906 12.1094 -17.9219
L12.1094 -9.1875
Q16.0625 -11.3281 19.9219 -12.3438
Q23.7812 -13.375 27.7812 -13.375
Q36.625 -13.375 41.0156 -8.76562
Q45.4062 -4.15625 45.4062 5.17188
L45.4062 9.625
Q42.625 4.78125 38.2812 2.39062
Q33.9375 0 27.875 0
Q17.8281 0 11.6719 7.65625
Q5.51562 15.3281 5.51562 27.9844
Q5.51562 40.6719 11.6719 48.3281
Q17.8281 56 27.875 56
Q33.9375 56 38.2812 53.6094
Q42.625 51.2188 45.4062 46.3906
L45.4062 54.6875
L54.3906 54.6875
z
" id="BitstreamVeraSans-Roman-67"/>
      </defs>
      <g transform="translate(924.16962822 1174.84375)scale(0.2 -0.2)">
       <use xlink:href="#BitstreamVeraSans-Roman-41"/>
       <use x="68.408203125" xlink:href="#BitstreamVeraSans-Roman-75"/>
       <use x="131.787109375" xlink:href="#BitstreamVeraSans-Roman-67"/>
       <use x="195.263671875" xlink:href="#BitstreamVeraSans-Roman-20"/>
       <use x="227.05078125" xlink:href="#BitstreamVeraSans-Roman-32"/>
       <use x="290.673828125" xlink:href="#BitstreamVeraSans-Roman-30"/>
       <use x="354.296875" xlink:href="#BitstreamVeraSans-Roman-31"/>
       <use x="417.919921875" xlink:href="#BitstreamVeraSans-Roman-33"/>
      </g>
     </g>
    </g>
    <g id="xtick_6">
     <g id="line2d_25">
      <path clip-path="url(#p0b2daec241)" d="
M1218.16 1152
L1218.16 144" style="fill:none;opacity:0.6;stroke:#000000;stroke-dasharray:6.000000,6.000000;stroke-dashoffset:0.0;stroke-linecap:butt;stroke-width:0.5;"/>
     </g>
     <g id="line2d_26">
      <g>
       <use style="stroke:#000000;stroke-linecap:butt;stroke-width:0.5;" x="1218.16159251" xlink:href="#mdad270ee8e" y="1152.0"/>
      </g>
     </g>
     <g id="line2d_27">
      <g>
       <use style="stroke:#000000;stroke-linecap:butt;stroke-width:0.5;" x="1218.16159251" xlink:href="#mcb557df647" y="144.0"/>
      </g>
     </g>
     <g id="text_6">
      <!-- Oct 2013 -->
      <defs>
       <path d="
M39.4062 66.2188
Q28.6562 66.2188 22.3281 58.2031
Q16.0156 50.2031 16.0156 36.375
Q16.0156 22.6094 22.3281 14.5938
Q28.6562 6.59375 39.4062 6.59375
Q50.1406 6.59375 56.4219 14.5938
Q62.7031 22.6094 62.7031 36.375
Q62.7031 50.2031 56.4219 58.2031
Q50.1406 66.2188 39.4062 66.2188
M39.4062 74.2188
Q54.7344 74.2188 63.9062 63.9375
Q73.0938 53.6562 73.0938 36.375
Q73.0938 19.1406 63.9062 8.85938
Q54.7344 -1.42188 39.4062 -1.42188
Q24.0312 -1.42188 14.8125 8.82812
Q5.60938 19.0938 5.60938 36.375
Q5.60938 53.6562 14.8125 63.9375
Q24.0312 74.2188 39.4062 74.2188" id="BitstreamVeraSans-Roman-4f"/>
       <path d="
M18.3125 70.2188
L18.3125 54.6875
L36.8125 54.6875
L36.8125 47.7031
L18.3125 47.7031
L18.3125 18.0156
Q18.3125 11.3281 20.1406 9.42188
Q21.9688 7.51562 27.5938 7.51562
L36.8125 7.51562
L36.8125 0
L27.5938 0
Q17.1875 0 13.2344 3.875
Q9.28125 7.76562 9.28125 18.0156
L9.28125 47.7031
L2.6875 47.7031
L2.6875 54.6875
L9.28125 54.6875
L9.28125 70.2188
z
" id="BitstreamVeraSans-Roman-74"/>
      </defs>
      <g transform="translate(1127.92721751 1174.84375)scale(0.2 -0.2)">
       <use xlink:href="#BitstreamVeraSans-Roman-4f"/>
       <use x="78.7109375" xlink:href="#BitstreamVeraSans-Roman-63"/>
       <use x="133.69140625" xlink:href="#BitstreamVeraSans-Roman-74"/>
       <use x="172.900390625" xlink:href="#BitstreamVeraSans-Roman-20"/>
       <use x="204.6875" xlink:href="#BitstreamVeraSans-Roman-32"/>
       <use x="268.310546875" xlink:href="#BitstreamVeraSans-Roman-30"/>
       <use x="331.93359375" xlink:href="#BitstreamVeraSans-Roman-31"/>
       <use x="395.556640625" xlink:href="#BitstreamVeraSans-Roman-33"/>
      </g>
     </g>
    </g>
    <g id="xtick_7">
     <g id="line2d_28">
      <path clip-path="url(#p0b2daec241)" d="
M1417.45 1152
L1417.45 144" style="fill:none;opacity:0.6;stroke:#000000;stroke-dasharray:6.000000,6.000000;stroke-dashoffset:0.0;stroke-linecap:butt;stroke-width:0.5;"/>
     </g>
     <g id="line2d_29">
      <g>
       <use style="stroke:#000000;stroke-linecap:butt;stroke-width:0.5;" x="1417.44730679" xlink:href="#mdad270ee8e" y="1152.0"/>
      </g>
     </g>
     <g id="line2d_30">
      <g>
       <use style="stroke:#000000;stroke-linecap:butt;stroke-width:0.5;" x="1417.44730679" xlink:href="#mcb557df647" y="144.0"/>
      </g>
     </g>
     <g id="text_7">
      <!-- Dec 2013 -->
      <g transform="translate(1323.09105679 1174.84375)scale(0.2 -0.2)">
       <use xlink:href="#BitstreamVeraSans-Roman-44"/>
       <use x="77.001953125" xlink:href="#BitstreamVeraSans-Roman-65"/>
       <use x="138.525390625" xlink:href="#BitstreamVeraSans-Roman-63"/>
       <use x="193.505859375" xlink:href="#BitstreamVeraSans-Roman-20"/>
       <use x="225.29296875" xlink:href="#BitstreamVeraSans-Roman-32"/>
       <use x="288.916015625" xlink:href="#BitstreamVeraSans-Roman-30"/>
       <use x="352.5390625" xlink:href="#BitstreamVeraSans-Roman-31"/>
       <use x="416.162109375" xlink:href="#BitstreamVeraSans-Roman-33"/>
      </g>
     </g>
    </g>
    <g id="xtick_8">
     <g id="line2d_31">
      <path clip-path="url(#p0b2daec241)" d="
M1620 1152
L1620 144" style="fill:none;opacity:0.6;stroke:#000000;stroke-dasharray:6.000000,6.000000;stroke-dashoffset:0.0;stroke-linecap:butt;stroke-width:0.5;"/>
     </g>
     <g id="line2d_32">
      <g>
       <use style="stroke:#000000;stroke-linecap:butt;stroke-width:0.5;" x="1620.0" xlink:href="#mdad270ee8e" y="1152.0"/>
      </g>
     </g>
     <g id="line2d_33">
      <g>
       <use style="stroke:#000000;stroke-linecap:butt;stroke-width:0.5;" x="1620.0" xlink:href="#mcb557df647" y="144.0"/>
      </g>
     </g>
     <g id="text_8">
      <!-- Feb 2014 -->
      <defs>
       <path d="
M37.7969 64.3125
L12.8906 25.3906
L37.7969 25.3906
z

M35.2031 72.9062
L47.6094 72.9062
L47.6094 25.3906
L58.0156 25.3906
L58.0156 17.1875
L47.6094 17.1875
L47.6094 0
L37.7969 0
L37.7969 17.1875
L4.89062 17.1875
L4.89062 26.7031
z
" id="BitstreamVeraSans-Roman-34"/>
      </defs>
      <g transform="translate(1528.459375 1175.196875)scale(0.2 -0.2)">
       <use xlink:href="#BitstreamVeraSans-Roman-46"/>
       <use x="52.01953125" xlink:href="#BitstreamVeraSans-Roman-65"/>
       <use x="113.54296875" xlink:href="#BitstreamVeraSans-Roman-62"/>
       <use x="177.01953125" xlink:href="#BitstreamVeraSans-Roman-20"/>
       <use x="208.806640625" xlink:href="#BitstreamVeraSans-Roman-32"/>
       <use x="272.4296875" xlink:href="#BitstreamVeraSans-Roman-30"/>
       <use x="336.052734375" xlink:href="#BitstreamVeraSans-Roman-31"/>
       <use x="399.67578125" xlink:href="#BitstreamVeraSans-Roman-34"/>
      </g>
     </g>
    </g>
   </g>
   <g id="matplotlib.axis_2">
    <g id="ytick_1">
     <g id="line2d_34">
      <path clip-path="url(#p0b2daec241)" d="
M225 1152
L1620 1152" style="fill:none;opacity:0.6;stroke:#000000;stroke-dasharray:6.000000,6.000000;stroke-dashoffset:0.0;stroke-linecap:butt;stroke-width:0.5;"/>
     </g>
     <g id="line2d_35">
      <defs>
       <path d="
M0 0
L4 0" id="mc8fcea1516" style="stroke:#000000;stroke-linecap:butt;stroke-width:0.5;"/>
      </defs>
      <g>
       <use style="stroke:#000000;stroke-linecap:butt;stroke-width:0.5;" x="225.0" xlink:href="#mc8fcea1516" y="1152.0"/>
      </g>
     </g>
     <g id="line2d_36">
      <defs>
       <path d="
M0 0
L-4 0" id="m0d5b0a6425" style="stroke:#000000;stroke-linecap:butt;stroke-width:0.5;"/>
      </defs>
      <g>
       <use style="stroke:#000000;stroke-linecap:butt;stroke-width:0.5;" x="1620.0" xlink:href="#m0d5b0a6425" y="1152.0"/>
      </g>
     </g>
     <g id="text_9">
      <!-- 0 -->
      <g transform="translate(210.921875 1159.2796875)scale(0.2 -0.2)">
       <use xlink:href="#BitstreamVeraSans-Roman-30"/>
      </g>
     </g>
    </g>
    <g id="ytick_2">
     <g id="line2d_37">
      <path clip-path="url(#p0b2daec241)" d="
M225 1026
L1620 1026" style="fill:none;opacity:0.6;stroke:#000000;stroke-dasharray:6.000000,6.000000;stroke-dashoffset:0.0;stroke-linecap:butt;stroke-width:0.5;"/>
     </g>
     <g id="line2d_38">
      <g>
       <use style="stroke:#000000;stroke-linecap:butt;stroke-width:0.5;" x="225.0" xlink:href="#mc8fcea1516" y="1026.0"/>
      </g>
     </g>
     <g id="line2d_39">
      <g>
       <use style="stroke:#000000;stroke-linecap:butt;stroke-width:0.5;" x="1620.0" xlink:href="#m0d5b0a6425" y="1026.0"/>
      </g>
     </g>
     <g id="text_10">
      <!-- 500 -->
      <defs>
       <path d="
M10.7969 72.9062
L49.5156 72.9062
L49.5156 64.5938
L19.8281 64.5938
L19.8281 46.7344
Q21.9688 47.4688 24.1094 47.8281
Q26.2656 48.1875 28.4219 48.1875
Q40.625 48.1875 47.75 41.5
Q54.8906 34.8125 54.8906 23.3906
Q54.8906 11.625 47.5625 5.09375
Q40.2344 -1.42188 26.9062 -1.42188
Q22.3125 -1.42188 17.5469 -0.640625
Q12.7969 0.140625 7.71875 1.70312
L7.71875 11.625
Q12.1094 9.23438 16.7969 8.0625
Q21.4844 6.89062 26.7031 6.89062
Q35.1562 6.89062 40.0781 11.3281
Q45.0156 15.7656 45.0156 23.3906
Q45.0156 31 40.0781 35.4375
Q35.1562 39.8906 26.7031 39.8906
Q22.75 39.8906 18.8125 39.0156
Q14.8906 38.1406 10.7969 36.2812
z
" id="BitstreamVeraSans-Roman-35"/>
      </defs>
      <g transform="translate(185.696875 1033.2796875)scale(0.2 -0.2)">
       <use xlink:href="#BitstreamVeraSans-Roman-35"/>
       <use x="63.623046875" xlink:href="#BitstreamVeraSans-Roman-30"/>
       <use x="127.24609375" xlink:href="#BitstreamVeraSans-Roman-30"/>
      </g>
     </g>
    </g>
    <g id="ytick_3">
     <g id="line2d_40">
      <path clip-path="url(#p0b2daec241)" d="
M225 900
L1620 900" style="fill:none;opacity:0.6;stroke:#000000;stroke-dasharray:6.000000,6.000000;stroke-dashoffset:0.0;stroke-linecap:butt;stroke-width:0.5;"/>
     </g>
     <g id="line2d_41">
      <g>
       <use style="stroke:#000000;stroke-linecap:butt;stroke-width:0.5;" x="225.0" xlink:href="#mc8fcea1516" y="900.0"/>
      </g>
     </g>
     <g id="line2d_42">
      <g>
       <use style="stroke:#000000;stroke-linecap:butt;stroke-width:0.5;" x="1620.0" xlink:href="#m0d5b0a6425" y="900.0"/>
      </g>
     </g>
     <g id="text_11">
      <!-- 1000 -->
      <g transform="translate(173.625 907.2796875)scale(0.2 -0.2)">
       <use xlink:href="#BitstreamVeraSans-Roman-31"/>
       <use x="63.623046875" xlink:href="#BitstreamVeraSans-Roman-30"/>
       <use x="127.24609375" xlink:href="#BitstreamVeraSans-Roman-30"/>
       <use x="190.869140625" xlink:href="#BitstreamVeraSans-Roman-30"/>
      </g>
     </g>
    </g>
    <g id="ytick_4">
     <g id="line2d_43">
      <path clip-path="url(#p0b2daec241)" d="
M225 774
L1620 774" style="fill:none;opacity:0.6;stroke:#000000;stroke-dasharray:6.000000,6.000000;stroke-dashoffset:0.0;stroke-linecap:butt;stroke-width:0.5;"/>
     </g>
     <g id="line2d_44">
      <g>
       <use style="stroke:#000000;stroke-linecap:butt;stroke-width:0.5;" x="225.0" xlink:href="#mc8fcea1516" y="774.0"/>
      </g>
     </g>
     <g id="line2d_45">
      <g>
       <use style="stroke:#000000;stroke-linecap:butt;stroke-width:0.5;" x="1620.0" xlink:href="#m0d5b0a6425" y="774.0"/>
      </g>
     </g>
     <g id="text_12">
      <!-- 1500 -->
      <g transform="translate(173.625 781.2796875)scale(0.2 -0.2)">
       <use xlink:href="#BitstreamVeraSans-Roman-31"/>
       <use x="63.623046875" xlink:href="#BitstreamVeraSans-Roman-35"/>
       <use x="127.24609375" xlink:href="#BitstreamVeraSans-Roman-30"/>
       <use x="190.869140625" xlink:href="#BitstreamVeraSans-Roman-30"/>
      </g>
     </g>
    </g>
    <g id="ytick_5">
     <g id="line2d_46">
      <path clip-path="url(#p0b2daec241)" d="
M225 648
L1620 648" style="fill:none;opacity:0.6;stroke:#000000;stroke-dasharray:6.000000,6.000000;stroke-dashoffset:0.0;stroke-linecap:butt;stroke-width:0.5;"/>
     </g>
     <g id="line2d_47">
      <g>
       <use style="stroke:#000000;stroke-linecap:butt;stroke-width:0.5;" x="225.0" xlink:href="#mc8fcea1516" y="648.0"/>
      </g>
     </g>
     <g id="line2d_48">
      <g>
       <use style="stroke:#000000;stroke-linecap:butt;stroke-width:0.5;" x="1620.0" xlink:href="#m0d5b0a6425" y="648.0"/>
      </g>
     </g>
     <g id="text_13">
      <!-- 2000 -->
      <g transform="translate(172.89375 655.2796875)scale(0.2 -0.2)">
       <use xlink:href="#BitstreamVeraSans-Roman-32"/>
       <use x="63.623046875" xlink:href="#BitstreamVeraSans-Roman-30"/>
       <use x="127.24609375" xlink:href="#BitstreamVeraSans-Roman-30"/>
       <use x="190.869140625" xlink:href="#BitstreamVeraSans-Roman-30"/>
      </g>
     </g>
    </g>
    <g id="ytick_6">
     <g id="line2d_49">
      <path clip-path="url(#p0b2daec241)" d="
M225 522
L1620 522" style="fill:none;opacity:0.6;stroke:#000000;stroke-dasharray:6.000000,6.000000;stroke-dashoffset:0.0;stroke-linecap:butt;stroke-width:0.5;"/>
     </g>
     <g id="line2d_50">
      <g>
       <use style="stroke:#000000;stroke-linecap:butt;stroke-width:0.5;" x="225.0" xlink:href="#mc8fcea1516" y="522.0"/>
      </g>
     </g>
     <g id="line2d_51">
      <g>
       <use style="stroke:#000000;stroke-linecap:butt;stroke-width:0.5;" x="1620.0" xlink:href="#m0d5b0a6425" y="522.0"/>
      </g>
     </g>
     <g id="text_14">
      <!-- 2500 -->
      <g transform="translate(172.89375 529.2796875)scale(0.2 -0.2)">
       <use xlink:href="#BitstreamVeraSans-Roman-32"/>
       <use x="63.623046875" xlink:href="#BitstreamVeraSans-Roman-35"/>
       <use x="127.24609375" xlink:href="#BitstreamVeraSans-Roman-30"/>
       <use x="190.869140625" xlink:href="#BitstreamVeraSans-Roman-30"/>
      </g>
     </g>
    </g>
    <g id="ytick_7">
     <g id="line2d_52">
      <path clip-path="url(#p0b2daec241)" d="
M225 396
L1620 396" style="fill:none;opacity:0.6;stroke:#000000;stroke-dasharray:6.000000,6.000000;stroke-dashoffset:0.0;stroke-linecap:butt;stroke-width:0.5;"/>
     </g>
     <g id="line2d_53">
      <g>
       <use style="stroke:#000000;stroke-linecap:butt;stroke-width:0.5;" x="225.0" xlink:href="#mc8fcea1516" y="396.0"/>
      </g>
     </g>
     <g id="line2d_54">
      <g>
       <use style="stroke:#000000;stroke-linecap:butt;stroke-width:0.5;" x="1620.0" xlink:href="#m0d5b0a6425" y="396.0"/>
      </g>
     </g>
     <g id="text_15">
      <!-- 3000 -->
      <g transform="translate(172.953125 403.2796875)scale(0.2 -0.2)">
       <use xlink:href="#BitstreamVeraSans-Roman-33"/>
       <use x="63.623046875" xlink:href="#BitstreamVeraSans-Roman-30"/>
       <use x="127.24609375" xlink:href="#BitstreamVeraSans-Roman-30"/>
       <use x="190.869140625" xlink:href="#BitstreamVeraSans-Roman-30"/>
      </g>
     </g>
    </g>
    <g id="ytick_8">
     <g id="line2d_55">
      <path clip-path="url(#p0b2daec241)" d="
M225 270
L1620 270" style="fill:none;opacity:0.6;stroke:#000000;stroke-dasharray:6.000000,6.000000;stroke-dashoffset:0.0;stroke-linecap:butt;stroke-width:0.5;"/>
     </g>
     <g id="line2d_56">
      <g>
       <use style="stroke:#000000;stroke-linecap:butt;stroke-width:0.5;" x="225.0" xlink:href="#mc8fcea1516" y="270.0"/>
      </g>
     </g>
     <g id="line2d_57">
      <g>
       <use style="stroke:#000000;stroke-linecap:butt;stroke-width:0.5;" x="1620.0" xlink:href="#m0d5b0a6425" y="270.0"/>
      </g>
     </g>
     <g id="text_16">
      <!-- 3500 -->
      <g transform="translate(172.953125 277.2796875)scale(0.2 -0.2)">
       <use xlink:href="#BitstreamVeraSans-Roman-33"/>
       <use x="63.623046875" xlink:href="#BitstreamVeraSans-Roman-35"/>
       <use x="127.24609375" xlink:href="#BitstreamVeraSans-Roman-30"/>
       <use x="190.869140625" xlink:href="#BitstreamVeraSans-Roman-30"/>
      </g>
     </g>
    </g>
    <g id="ytick_9">
     <g id="line2d_58">
      <path clip-path="url(#p0b2daec241)" d="
M225 144
L1620 144" style="fill:none;opacity:0.6;stroke:#000000;stroke-dasharray:6.000000,6.000000;stroke-dashoffset:0.0;stroke-linecap:butt;stroke-width:0.5;"/>
     </g>
     <g id="line2d_59">
      <g>
       <use style="stroke:#000000;stroke-linecap:butt;stroke-width:0.5;" x="225.0" xlink:href="#mc8fcea1516" y="144.0"/>
      </g>
     </g>
     <g id="line2d_60">
      <g>
       <use style="stroke:#000000;stroke-linecap:butt;stroke-width:0.5;" x="1620.0" xlink:href="#m0d5b0a6425" y="144.0"/>
      </g>
     </g>
     <g id="text_17">
      <!-- 4000 -->
      <g transform="translate(172.40625 151.2796875)scale(0.2 -0.2)">
       <use xlink:href="#BitstreamVeraSans-Roman-34"/>
       <use x="63.623046875" xlink:href="#BitstreamVeraSans-Roman-30"/>
       <use x="127.24609375" xlink:href="#BitstreamVeraSans-Roman-30"/>
       <use x="190.869140625" xlink:href="#BitstreamVeraSans-Roman-30"/>
      </g>
     </g>
    </g>
    <g id="text_18">
     <!-- GWh -->
     <defs>
      <path d="
M59.5156 10.4062
L59.5156 29.9844
L43.4062 29.9844
L43.4062 38.0938
L69.2812 38.0938
L69.2812 6.78125
Q63.5781 2.73438 56.6875 0.65625
Q49.8125 -1.42188 42 -1.42188
Q24.9062 -1.42188 15.25 8.5625
Q5.60938 18.5625 5.60938 36.375
Q5.60938 54.25 15.25 64.2344
Q24.9062 74.2188 42 74.2188
Q49.125 74.2188 55.5469 72.4531
Q61.9688 70.7031 67.3906 67.2812
L67.3906 56.7812
Q61.9219 61.4219 55.7656 63.7656
Q49.6094 66.1094 42.8281 66.1094
Q29.4375 66.1094 22.7188 58.6406
Q16.0156 51.1719 16.0156 36.375
Q16.0156 21.625 22.7188 14.1562
Q29.4375 6.6875 42.8281 6.6875
Q48.0469 6.6875 52.1406 7.59375
Q56.25 8.5 59.5156 10.4062" id="BitstreamVeraSans-Roman-47"/>
      <path d="
M54.8906 33.0156
L54.8906 0
L45.9062 0
L45.9062 32.7188
Q45.9062 40.4844 42.875 44.3281
Q39.8438 48.1875 33.7969 48.1875
Q26.5156 48.1875 22.3125 43.5469
Q18.1094 38.9219 18.1094 30.9062
L18.1094 0
L9.07812 0
L9.07812 75.9844
L18.1094 75.9844
L18.1094 46.1875
Q21.3438 51.125 25.7031 53.5625
Q30.0781 56 35.7969 56
Q45.2188 56 50.0469 50.1719
Q54.8906 44.3438 54.8906 33.0156" id="BitstreamVeraSans-Roman-68"/>
      <path d="
M3.32812 72.9062
L13.2812 72.9062
L28.6094 11.2812
L43.8906 72.9062
L54.9844 72.9062
L70.3125 11.2812
L85.5938 72.9062
L95.6094 72.9062
L77.2969 0
L64.8906 0
L49.5156 63.2812
L33.9844 0
L21.5781 0
z
" id="BitstreamVeraSans-Roman-57"/>
     </defs>
     <g transform="translate(167.40625 674.735625)rotate(-90.0)scale(0.24 -0.24)">
      <use xlink:href="#BitstreamVeraSans-Roman-47"/>
      <use x="77.490234375" xlink:href="#BitstreamVeraSans-Roman-57"/>
      <use x="176.3671875" xlink:href="#BitstreamVeraSans-Roman-68"/>
     </g>
    </g>
   </g>
   <g id="patch_3">
    <path d="
M225 144
L1620 144" style="fill:none;stroke:#000000;"/>
   </g>
   <g id="patch_4">
    <path d="
M1620 1152
L1620 144" style="fill:none;stroke:#000000;"/>
   </g>
   <g id="patch_5">
    <path d="
M225 1152
L1620 1152" style="fill:none;stroke:#000000;"/>
   </g>
   <g id="patch_6">
    <path d="
M225 1152
L225 144" style="fill:none;stroke:#000000;"/>
   </g>
   <g id="legend_1">
    <g id="patch_7">
     <path d="
M1394.08 390.975
L1610 390.975
L1610 154
L1394.08 154
L1394.08 390.975
z
" style="fill:#ffffff;stroke:#000000;"/>
    </g>
    <g id="line2d_61">
     <path d="
M1408.08 170.197
L1436.08 170.197" style="fill:none;stroke:#0f7baf;stroke-width:4;"/>
    </g>
    <g id="line2d_62"/>
    <g id="text_19">
     <!-- Actual storage -->
     <defs>
      <path d="
M30.6094 48.3906
Q23.3906 48.3906 19.1875 42.75
Q14.9844 37.1094 14.9844 27.2969
Q14.9844 17.4844 19.1562 11.8438
Q23.3438 6.20312 30.6094 6.20312
Q37.7969 6.20312 41.9844 11.8594
Q46.1875 17.5312 46.1875 27.2969
Q46.1875 37.0156 41.9844 42.7031
Q37.7969 48.3906 30.6094 48.3906
M30.6094 56
Q42.3281 56 49.0156 48.375
Q55.7188 40.7656 55.7188 27.2969
Q55.7188 13.875 49.0156 6.21875
Q42.3281 -1.42188 30.6094 -1.42188
Q18.8438 -1.42188 12.1719 6.21875
Q5.51562 13.875 5.51562 27.2969
Q5.51562 40.7656 12.1719 48.375
Q18.8438 56 30.6094 56" id="BitstreamVeraSans-Roman-6f"/>
      <path d="
M34.2812 27.4844
Q23.3906 27.4844 19.1875 25
Q14.9844 22.5156 14.9844 16.5
Q14.9844 11.7188 18.1406 8.90625
Q21.2969 6.10938 26.7031 6.10938
Q34.1875 6.10938 38.7031 11.4062
Q43.2188 16.7031 43.2188 25.4844
L43.2188 27.4844
z

M52.2031 31.2031
L52.2031 0
L43.2188 0
L43.2188 8.29688
Q40.1406 3.32812 35.5469 0.953125
Q30.9531 -1.42188 24.3125 -1.42188
Q15.9219 -1.42188 10.9531 3.29688
Q6 8.01562 6 15.9219
Q6 25.1406 12.1719 29.8281
Q18.3594 34.5156 30.6094 34.5156
L43.2188 34.5156
L43.2188 35.4062
Q43.2188 41.6094 39.1406 45
Q35.0625 48.3906 27.6875 48.3906
Q23 48.3906 18.5469 47.2656
Q14.1094 46.1406 10.0156 43.8906
L10.0156 52.2031
Q14.9375 54.1094 19.5781 55.0469
Q24.2188 56 28.6094 56
Q40.4844 56 46.3438 49.8438
Q52.2031 43.7031 52.2031 31.2031" id="BitstreamVeraSans-Roman-61"/>
      <path d="
M44.2812 53.0781
L44.2812 44.5781
Q40.4844 46.5312 36.375 47.5
Q32.2812 48.4844 27.875 48.4844
Q21.1875 48.4844 17.8438 46.4375
Q14.5 44.3906 14.5 40.2812
Q14.5 37.1562 16.8906 35.375
Q19.2812 33.5938 26.5156 31.9844
L29.5938 31.2969
Q39.1562 29.25 43.1875 25.5156
Q47.2188 21.7812 47.2188 15.0938
Q47.2188 7.46875 41.1875 3.01562
Q35.1562 -1.42188 24.6094 -1.42188
Q20.2188 -1.42188 15.4531 -0.5625
Q10.6875 0.296875 5.42188 2
L5.42188 11.2812
Q10.4062 8.6875 15.2344 7.39062
Q20.0625 6.10938 24.8125 6.10938
Q31.1562 6.10938 34.5625 8.28125
Q37.9844 10.4531 37.9844 14.4062
Q37.9844 18.0625 35.5156 20.0156
Q33.0625 21.9688 24.7031 23.7812
L21.5781 24.5156
Q13.2344 26.2656 9.51562 29.9062
Q5.8125 33.5469 5.8125 39.8906
Q5.8125 47.6094 11.2812 51.7969
Q16.75 56 26.8125 56
Q31.7812 56 36.1719 55.2656
Q40.5781 54.5469 44.2812 53.0781" id="BitstreamVeraSans-Roman-73"/>
      <path d="
M9.42188 75.9844
L18.4062 75.9844
L18.4062 0
L9.42188 0
z
" id="BitstreamVeraSans-Roman-6c"/>
     </defs>
     <g transform="translate(1458.075 177.196875)scale(0.2 -0.2)">
      <use xlink:href="#BitstreamVeraSans-Roman-41"/>
      <use x="66.658203125" xlink:href="#BitstreamVeraSans-Roman-63"/>
      <use x="121.638671875" xlink:href="#BitstreamVeraSans-Roman-74"/>
      <use x="160.84765625" xlink:href="#BitstreamVeraSans-Roman-75"/>
      <use x="224.2265625" xlink:href="#BitstreamVeraSans-Roman-61"/>
      <use x="285.505859375" xlink:href="#BitstreamVeraSans-Roman-6c"/>
      <use x="313.2890625" xlink:href="#BitstreamVeraSans-Roman-20"/>
      <use x="345.076171875" xlink:href="#BitstreamVeraSans-Roman-73"/>
      <use x="397.17578125" xlink:href="#BitstreamVeraSans-Roman-74"/>
      <use x="436.384765625" xlink:href="#BitstreamVeraSans-Roman-6f"/>
      <use x="497.56640625" xlink:href="#BitstreamVeraSans-Roman-72"/>
      <use x="538.6796875" xlink:href="#BitstreamVeraSans-Roman-61"/>
      <use x="599.958984375" xlink:href="#BitstreamVeraSans-Roman-67"/>
      <use x="663.435546875" xlink:href="#BitstreamVeraSans-Roman-65"/>
     </g>
    </g>
    <g id="line2d_63">
     <path d="
M1408.08 199.553
L1436.08 199.553" style="fill:none;stroke:#e8e8e8;stroke-width:6;"/>
    </g>
    <g id="line2d_64"/>
    <g id="text_20">
     <!-- Mean storage -->
     <defs>
      <path d="
M9.8125 72.9062
L24.5156 72.9062
L43.1094 23.2969
L61.8125 72.9062
L76.5156 72.9062
L76.5156 0
L66.8906 0
L66.8906 64.0156
L48.0938 14.0156
L38.1875 14.0156
L19.3906 64.0156
L19.3906 0
L9.8125 0
z
" id="BitstreamVeraSans-Roman-4d"/>
     </defs>
     <g transform="translate(1458.075 206.553125)scale(0.2 -0.2)">
      <use xlink:href="#BitstreamVeraSans-Roman-4d"/>
      <use x="86.279296875" xlink:href="#BitstreamVeraSans-Roman-65"/>
      <use x="147.802734375" xlink:href="#BitstreamVeraSans-Roman-61"/>
      <use x="209.08203125" xlink:href="#BitstreamVeraSans-Roman-6e"/>
      <use x="272.4609375" xlink:href="#BitstreamVeraSans-Roman-20"/>
      <use x="304.248046875" xlink:href="#BitstreamVeraSans-Roman-73"/>
      <use x="356.34765625" xlink:href="#BitstreamVeraSans-Roman-74"/>
      <use x="395.556640625" xlink:href="#BitstreamVeraSans-Roman-6f"/>
      <use x="456.73828125" xlink:href="#BitstreamVeraSans-Roman-72"/>
      <use x="497.8515625" xlink:href="#BitstreamVeraSans-Roman-61"/>
      <use x="559.130859375" xlink:href="#BitstreamVeraSans-Roman-67"/>
      <use x="622.607421875" xlink:href="#BitstreamVeraSans-Roman-65"/>
     </g>
    </g>
    <g id="line2d_65">
     <path d="
M1408.08 228.909
L1436.08 228.909" style="fill:none;stroke:#fbd18b;stroke-width:2.0;"/>
    </g>
    <g id="line2d_66"/>
    <g id="text_21">
     <!-- 1% HRC -->
     <defs>
      <path d="
M64.4062 67.2812
L64.4062 56.8906
Q59.4219 61.5312 53.7812 63.8125
Q48.1406 66.1094 41.7969 66.1094
Q29.2969 66.1094 22.6562 58.4688
Q16.0156 50.8281 16.0156 36.375
Q16.0156 21.9688 22.6562 14.3281
Q29.2969 6.6875 41.7969 6.6875
Q48.1406 6.6875 53.7812 8.98438
Q59.4219 11.2812 64.4062 15.9219
L64.4062 5.60938
Q59.2344 2.09375 53.4375 0.328125
Q47.6562 -1.42188 41.2188 -1.42188
Q24.6562 -1.42188 15.125 8.70312
Q5.60938 18.8438 5.60938 36.375
Q5.60938 53.9531 15.125 64.0781
Q24.6562 74.2188 41.2188 74.2188
Q47.75 74.2188 53.5312 72.4844
Q59.3281 70.75 64.4062 67.2812" id="BitstreamVeraSans-Roman-43"/>
      <path d="
M44.3906 34.1875
Q47.5625 33.1094 50.5625 29.5938
Q53.5625 26.0781 56.5938 19.9219
L66.6094 0
L56 0
L46.6875 18.7031
Q43.0625 26.0312 39.6719 28.4219
Q36.2812 30.8125 30.4219 30.8125
L19.6719 30.8125
L19.6719 0
L9.8125 0
L9.8125 72.9062
L32.0781 72.9062
Q44.5781 72.9062 50.7344 67.6719
Q56.8906 62.4531 56.8906 51.9062
Q56.8906 45.0156 53.6875 40.4688
Q50.4844 35.9375 44.3906 34.1875
M19.6719 64.7969
L19.6719 38.9219
L32.0781 38.9219
Q39.2031 38.9219 42.8438 42.2188
Q46.4844 45.5156 46.4844 51.9062
Q46.4844 58.2969 42.8438 61.5469
Q39.2031 64.7969 32.0781 64.7969
z
" id="BitstreamVeraSans-Roman-52"/>
      <path d="
M72.7031 32.0781
Q68.4531 32.0781 66.0312 28.4688
Q63.625 24.8594 63.625 18.4062
Q63.625 12.0625 66.0312 8.42188
Q68.4531 4.78125 72.7031 4.78125
Q76.8594 4.78125 79.2656 8.42188
Q81.6875 12.0625 81.6875 18.4062
Q81.6875 24.8125 79.2656 28.4375
Q76.8594 32.0781 72.7031 32.0781
M72.7031 38.2812
Q80.4219 38.2812 84.9531 32.9062
Q89.5 27.5469 89.5 18.4062
Q89.5 9.28125 84.9375 3.92188
Q80.375 -1.42188 72.7031 -1.42188
Q64.8906 -1.42188 60.3438 3.92188
Q55.8125 9.28125 55.8125 18.4062
Q55.8125 27.5938 60.375 32.9375
Q64.9375 38.2812 72.7031 38.2812
M22.3125 68.0156
Q18.1094 68.0156 15.6875 64.375
Q13.2812 60.75 13.2812 54.3906
Q13.2812 47.9531 15.6719 44.3281
Q18.0625 40.7188 22.3125 40.7188
Q26.5625 40.7188 28.9688 44.3281
Q31.3906 47.9531 31.3906 54.3906
Q31.3906 60.6875 28.9531 64.3438
Q26.5156 68.0156 22.3125 68.0156
M66.4062 74.2188
L74.2188 74.2188
L28.6094 -1.42188
L20.7969 -1.42188
z

M22.3125 74.2188
Q30.0312 74.2188 34.6094 68.875
Q39.2031 63.5312 39.2031 54.3906
Q39.2031 45.1719 34.6406 39.8438
Q30.0781 34.5156 22.3125 34.5156
Q14.5469 34.5156 10.0312 39.8594
Q5.51562 45.2188 5.51562 54.3906
Q5.51562 63.4844 10.0469 68.8438
Q14.5938 74.2188 22.3125 74.2188" id="BitstreamVeraSans-Roman-25"/>
      <path d="
M9.8125 72.9062
L19.6719 72.9062
L19.6719 43.0156
L55.5156 43.0156
L55.5156 72.9062
L65.375 72.9062
L65.375 0
L55.5156 0
L55.5156 34.7188
L19.6719 34.7188
L19.6719 0
L9.8125 0
z
" id="BitstreamVeraSans-Roman-48"/>
     </defs>
     <g transform="translate(1458.075 235.909375)scale(0.2 -0.2)">
      <use xlink:href="#BitstreamVeraSans-Roman-31"/>
      <use x="63.623046875" xlink:href="#BitstreamVeraSans-Roman-25"/>
      <use x="158.642578125" xlink:href="#BitstreamVeraSans-Roman-20"/>
      <use x="190.4296875" xlink:href="#BitstreamVeraSans-Roman-48"/>
      <use x="265.625" xlink:href="#BitstreamVeraSans-Roman-52"/>
      <use x="330.107421875" xlink:href="#BitstreamVeraSans-Roman-43"/>
     </g>
    </g>
    <g id="line2d_67">
     <path d="
M1408.08 258.266
L1436.08 258.266" style="fill:none;stroke:#ffba2d;stroke-width:2.0;"/>
    </g>
    <g id="line2d_68"/>
    <g id="text_22">
     <!-- 2% HRC -->
     <g transform="translate(1458.075 265.265625)scale(0.2 -0.2)">
      <use xlink:href="#BitstreamVeraSans-Roman-32"/>
      <use x="63.623046875" xlink:href="#BitstreamVeraSans-Roman-25"/>
      <use x="158.642578125" xlink:href="#BitstreamVeraSans-Roman-20"/>
      <use x="190.4296875" xlink:href="#BitstreamVeraSans-Roman-48"/>
      <use x="265.625" xlink:href="#BitstreamVeraSans-Roman-52"/>
      <use x="330.107421875" xlink:href="#BitstreamVeraSans-Roman-43"/>
     </g>
    </g>
    <g id="line2d_69">
     <path d="
M1408.08 287.622
L1436.08 287.622" style="fill:none;stroke:#ffbc80;stroke-width:2.0;"/>
    </g>
    <g id="line2d_70"/>
    <g id="text_23">
     <!-- 4% HRC -->
     <g transform="translate(1458.075 294.621875)scale(0.2 -0.2)">
      <use xlink:href="#BitstreamVeraSans-Roman-34"/>
      <use x="63.623046875" xlink:href="#BitstreamVeraSans-Roman-25"/>
      <use x="158.642578125" xlink:href="#BitstreamVeraSans-Roman-20"/>
      <use x="190.4296875" xlink:href="#BitstreamVeraSans-Roman-48"/>
      <use x="265.625" xlink:href="#BitstreamVeraSans-Roman-52"/>
      <use x="330.107421875" xlink:href="#BitstreamVeraSans-Roman-43"/>
     </g>
    </g>
    <g id="line2d_71">
     <path d="
M1408.08 316.978
L1436.08 316.978" style="fill:none;stroke:#ff7b00;stroke-width:2.0;"/>
    </g>
    <g id="line2d_72"/>
    <g id="text_24">
     <!-- 6% HRC -->
     <defs>
      <path d="
M33.0156 40.375
Q26.375 40.375 22.4844 35.8281
Q18.6094 31.2969 18.6094 23.3906
Q18.6094 15.5312 22.4844 10.9531
Q26.375 6.39062 33.0156 6.39062
Q39.6562 6.39062 43.5312 10.9531
Q47.4062 15.5312 47.4062 23.3906
Q47.4062 31.2969 43.5312 35.8281
Q39.6562 40.375 33.0156 40.375
M52.5938 71.2969
L52.5938 62.3125
Q48.875 64.0625 45.0938 64.9844
Q41.3125 65.9219 37.5938 65.9219
Q27.8281 65.9219 22.6719 59.3281
Q17.5312 52.7344 16.7969 39.4062
Q19.6719 43.6562 24.0156 45.9219
Q28.375 48.1875 33.5938 48.1875
Q44.5781 48.1875 50.9531 41.5156
Q57.3281 34.8594 57.3281 23.3906
Q57.3281 12.1562 50.6875 5.35938
Q44.0469 -1.42188 33.0156 -1.42188
Q20.3594 -1.42188 13.6719 8.26562
Q6.98438 17.9688 6.98438 36.375
Q6.98438 53.6562 15.1875 63.9375
Q23.3906 74.2188 37.2031 74.2188
Q40.9219 74.2188 44.7031 73.4844
Q48.4844 72.75 52.5938 71.2969" id="BitstreamVeraSans-Roman-36"/>
     </defs>
     <g transform="translate(1458.075 323.978125)scale(0.2 -0.2)">
      <use xlink:href="#BitstreamVeraSans-Roman-36"/>
      <use x="63.623046875" xlink:href="#BitstreamVeraSans-Roman-25"/>
      <use x="158.642578125" xlink:href="#BitstreamVeraSans-Roman-20"/>
      <use x="190.4296875" xlink:href="#BitstreamVeraSans-Roman-48"/>
      <use x="265.625" xlink:href="#BitstreamVeraSans-Roman-52"/>
      <use x="330.107421875" xlink:href="#BitstreamVeraSans-Roman-43"/>
     </g>
    </g>
    <g id="line2d_73">
     <path d="
M1408.08 346.334
L1436.08 346.334" style="fill:none;stroke:#f68ba2;stroke-width:2.0;"/>
    </g>
    <g id="line2d_74"/>
    <g id="text_25">
     <!-- 8% HRC -->
     <defs>
      <path d="
M31.7812 34.625
Q24.75 34.625 20.7188 30.8594
Q16.7031 27.0938 16.7031 20.5156
Q16.7031 13.9219 20.7188 10.1562
Q24.75 6.39062 31.7812 6.39062
Q38.8125 6.39062 42.8594 10.1719
Q46.9219 13.9688 46.9219 20.5156
Q46.9219 27.0938 42.8906 30.8594
Q38.875 34.625 31.7812 34.625
M21.9219 38.8125
Q15.5781 40.375 12.0312 44.7188
Q8.5 49.0781 8.5 55.3281
Q8.5 64.0625 14.7188 69.1406
Q20.9531 74.2188 31.7812 74.2188
Q42.6719 74.2188 48.875 69.1406
Q55.0781 64.0625 55.0781 55.3281
Q55.0781 49.0781 51.5312 44.7188
Q48 40.375 41.7031 38.8125
Q48.8281 37.1562 52.7969 32.3125
Q56.7812 27.4844 56.7812 20.5156
Q56.7812 9.90625 50.3125 4.23438
Q43.8438 -1.42188 31.7812 -1.42188
Q19.7344 -1.42188 13.25 4.23438
Q6.78125 9.90625 6.78125 20.5156
Q6.78125 27.4844 10.7812 32.3125
Q14.7969 37.1562 21.9219 38.8125
M18.3125 54.3906
Q18.3125 48.7344 21.8438 45.5625
Q25.3906 42.3906 31.7812 42.3906
Q38.1406 42.3906 41.7188 45.5625
Q45.3125 48.7344 45.3125 54.3906
Q45.3125 60.0625 41.7188 63.2344
Q38.1406 66.4062 31.7812 66.4062
Q25.3906 66.4062 21.8438 63.2344
Q18.3125 60.0625 18.3125 54.3906" id="BitstreamVeraSans-Roman-38"/>
     </defs>
     <g transform="translate(1458.075 353.334375)scale(0.2 -0.2)">
      <use xlink:href="#BitstreamVeraSans-Roman-38"/>
      <use x="63.623046875" xlink:href="#BitstreamVeraSans-Roman-25"/>
      <use x="158.642578125" xlink:href="#BitstreamVeraSans-Roman-20"/>
      <use x="190.4296875" xlink:href="#BitstreamVeraSans-Roman-48"/>
      <use x="265.625" xlink:href="#BitstreamVeraSans-Roman-52"/>
      <use x="330.107421875" xlink:href="#BitstreamVeraSans-Roman-43"/>
     </g>
    </g>
    <g id="line2d_75">
     <path d="
M1408.08 375.691
L1436.08 375.691" style="fill:none;stroke:#ed1745;stroke-width:4;"/>
    </g>
    <g id="line2d_76"/>
    <g id="text_26">
     <!-- 10% HRC -->
     <g transform="translate(1458.075 382.690625)scale(0.2 -0.2)">
      <use xlink:href="#BitstreamVeraSans-Roman-31"/>
      <use x="63.623046875" xlink:href="#BitstreamVeraSans-Roman-30"/>
      <use x="127.24609375" xlink:href="#BitstreamVeraSans-Roman-25"/>
      <use x="222.265625" xlink:href="#BitstreamVeraSans-Roman-20"/>
      <use x="254.052734375" xlink:href="#BitstreamVeraSans-Roman-48"/>
      <use x="329.248046875" xlink:href="#BitstreamVeraSans-Roman-52"/>
      <use x="393.73046875" xlink:href="#BitstreamVeraSans-Roman-43"/>
     </g>
    </g>
   </g>
  </g>
 </g>
 <defs>
  <clipPath id="p0b2daec241">
   <rect height="1008.0" width="1395.0" x="225.0" y="144.0"/>
  </clipPath>
 </defs>
</svg>
